<svg xmlns="http://www.w3.org/2000/svg" width="82" height="82" viewBox="0 0 82 82">
  <defs>
    <style>
      .cls-1 {
        fill: #fff;
        fill-rule: evenodd;
      }
    </style>
  </defs>
  <path id="tickets" class="cls-1" d="M211.012,918.251L262.261,867l30.75,30.753L241.761,949Zm9.4,11.105c2.359-2.359,6.566-1.977,9.4.854s3.213,7.038.854,9.4-6.565,1.977-9.4-.854S218.049,931.715,220.407,929.356Zm52.958-52.964c2.359-2.359,6.566-1.976,9.4.854s3.213,7.038.854,9.4-6.565,1.976-9.4-.854S271.006,878.751,273.365,876.392Zm-46.979,36.733,30.75-30.753a4.833,4.833,0,0,1,6.834,0l13.666,13.668a4.833,4.833,0,0,1,0,6.834l-30.75,30.753a4.831,4.831,0,0,1-6.833,0l-13.667-13.668A4.833,4.833,0,0,1,226.386,913.125Zm3.417,0,27.333-27.336a4.833,4.833,0,0,1,6.834,0l10.249,10.251a4.833,4.833,0,0,1,0,6.834L246.886,930.21a4.831,4.831,0,0,1-6.833,0L229.8,919.959A4.833,4.833,0,0,1,229.8,913.125Zm17.083-20.5,1.709-1.709,20.5,20.5-1.708,1.708Zm-35.87,7.641h74.3V941.3h-74.3v-41.04Zm2.562,2.565h76.866V949H213.578v-46.17Zm-1.281,15.39c3.538,0,6.406,3.446,6.406,7.695s-2.868,7.7-6.406,7.7-6.405-3.446-6.405-7.7S208.759,918.219,212.3,918.219Zm79.428,0c3.538,0,6.406,3.446,6.406,7.695s-2.868,7.7-6.406,7.7-6.405-3.446-6.405-7.7S288.188,918.219,291.725,918.219Zm-62.774-7.7h46.12a5.127,5.127,0,0,1,5.124,5.13v20.52a5.126,5.126,0,0,1-5.124,5.13h-46.12a5.126,5.126,0,0,1-5.124-5.13v-20.52A5.127,5.127,0,0,1,228.951,910.524Zm2.563,2.565h41a5.127,5.127,0,0,1,5.124,5.13V933.61a5.126,5.126,0,0,1-5.124,5.129H231.514a5.126,5.126,0,0,1-5.125-5.129V918.219A5.127,5.127,0,0,1,231.514,913.089Zm28.184-2.565h2.562V941.3H259.7v-30.78Z" transform="translate(-211 -867)"/>
</svg>
