<svg xmlns="http://www.w3.org/2000/svg" width="76" height="76" viewBox="0 0 76 76">
  <defs>
    <style>
      .cls-1 {
        fill: #fff;
        fill-rule: evenodd;
      }
    </style>
  </defs>
  <path id="iPad_potrait_landscape_2" data-name="iPad potrait &amp; landscape 2" class="cls-1" d="M987.5,902.5v42.749a4.749,4.749,0,0,0,4.75,4.75h57a4.752,4.752,0,0,0,4.75-4.75V902.5a4.752,4.752,0,0,0-4.75-4.75h-57A4.749,4.749,0,0,0,987.5,902.5Zm7.125,2.375v38H1044.5v-38H994.625ZM987.5,897.75h45.12v45.125H987.5V897.75ZM982.75,874h42.75a4.752,4.752,0,0,1,4.75,4.75v57a4.752,4.752,0,0,1-4.75,4.75H982.75a4.75,4.75,0,0,1-4.751-4.75v-57A4.751,4.751,0,0,1,982.75,874Zm2.375,7.126h38V931h-38V881.125Zm19,52.249a2.375,2.375,0,1,1-2.37,2.375A2.374,2.374,0,0,1,1004.12,933.374Zm45.13-11.874a2.375,2.375,0,1,1-2.38,2.375A2.372,2.372,0,0,1,1049.25,921.5Z" transform="translate(-978 -874)"/>
</svg>
